<svg xmlns="http://www.w3.org/2000/svg" width="32" height="32" viewBox="0 0 32 32" fill="none">
  <rect width="32" height="32" rx="6" fill="white"/>
  <g transform="translate(4, 4)">
    <path d="M12 5a3 3 0 1 0-5.997.125 4 4 0 0 0-2.526 5.77 4 4 0 0 0 .556 6.588A4 4 0 1 0 12 18Z" stroke="#4f46e5" stroke-width="2" stroke-linecap="round" stroke-linejoin="round"/>
    <path d="M12 5a3 3 0 1 1 5.997.125 4 4 0 0 1 2.526 5.77 4 4 0 0 1-.556 6.588A4 4 0 1 1 12 18Z" stroke="#4f46e5" stroke-width="2" stroke-linecap="round" stroke-linejoin="round"/>
    <path d="M15 13a4.5 4.5 0 0 1-3-4 4.5 4.5 0 0 1-3 4" stroke="#4f46e5" stroke-width="2" stroke-linecap="round" stroke-linejoin="round"/>
    <path d="M17.599 6.5a3 3 0 0 0 .399-1.375" stroke="#4f46e5" stroke-width="2" stroke-linecap="round" stroke-linejoin="round"/>
    <path d="M6.003 5.125A3 3 0 0 0 6.401 6.5" stroke="#4f46e5" stroke-width="2" stroke-linecap="round" stroke-linejoin="round"/>
    <path d="M3.477 10.896a4 4 0 0 1 .585-.396" stroke="#4f46e5" stroke-width="2" stroke-linecap="round" stroke-linejoin="round"/>
    <path d="M19.938 10.5a4 4 0 0 1 .585.396" stroke="#4f46e5" stroke-width="2" stroke-linecap="round" stroke-linejoin="round"/>
    <path d="M6 18a4 4 0 0 1-1.967-.516" stroke="#4f46e5" stroke-width="2" stroke-linecap="round" stroke-linejoin="round"/>
    <path d="M19.967 17.484A4 4 0 0 1 18 18" stroke="#4f46e5" stroke-width="2" stroke-linecap="round" stroke-linejoin="round"/>
  </g>
</svg>